{
  "accessors": [
    {
      "bufferView": 2,
      "componentType": 5126,
      "count": 5105,
      "max": [
        1.5274534225463867,
        1.8171627521514893,
        2.1204404830932617
      ],
      "min": [
        -1.0893683433532715,
        -2.0594608783721924,
        0.43620723485946655
      ],
      "type": "VEC3"
    },
    {
      "bufferView": 2,
      "byteOffset": 61260,
      "componentType": 5126,
      "count": 5105,
      "max": [
        0.9992687106132507,
        1.0,
        0.9992899894714355
      ],
      "min": [
        -0.9992687106132507,
        -1.0,
        -0.9992899298667908
      ],
      "type": "VEC3"
    },
    {
      "bufferView": 1,
      "componentType": 5126,
      "count": 5105,
      "max": [
        1.0,
        1.0
      ],
      "min": [
        -1.564621925354004e-07,
        0.01000000536441803
      ],
      "type": "VEC2"
    },
    {
      "bufferView": 0,
      "componentType": 5125,
      "count": 17424,
      "type": "SCALAR"
    },
    {
      "bufferView": 2,
      "byteOffset": 122520,
      "componentType": 5126,
      "count": 1943,
      "max": [
        2.0726311206817627,
        3.4945058822631836,
        2.325117349624634
      ],
      "min": [
        -1.2748973369598389,
        -2.544497489929199,
        0.01824362576007843
      ],
      "type": "VEC3"
    },
    {
      "bufferView": 2,
      "byteOffset": 145836,
      "componentType": 5126,
      "count": 1943,
      "max": [
        0.9972521066665649,
        1.0,
        1.0
      ],
      "min": [
        -0.9996696710586548,
        -1.0,
        -1.0
      ],
      "type": "VEC3"
    },
    {
      "bufferView": 1,
      "byteOffset": 40840,
      "componentType": 5126,
      "count": 1943,
      "max": [
        1.0,
        1.0
      ],
      "min": [
        -1.564621925354004e-07,
        0.0
      ],
      "type": "VEC2"
    },
    {
      "bufferView": 0,
      "byteOffset": 69696,
      "componentType": 5125,
      "count": 4965,
      "type": "SCALAR"
    },
    {
      "bufferView": 2,
      "byteOffset": 169152,
      "componentType": 5126,
      "count": 322,
      "max": [
        2.04953932762146,
        3.4945058822631836,
        2.325117349624634
      ],
      "min": [
        -1.2748973369598389,
        -2.544497489929199,
        0.09853918850421906
      ],
      "type": "VEC3"
    },
    {
      "bufferView": 2,
      "byteOffset": 173016,
      "componentType": 5126,
      "count": 322,
      "max": [
        0.270384281873703,
        0.999839186668396,
        0.9655557870864868
      ],
      "min": [
        -0.9955539703369141,
        -0.999504029750824,
        -0.6399644613265991
      ],
      "type": "VEC3"
    },
    {
      "bufferView": 1,
      "byteOffset": 56384,
      "componentType": 5126,
      "count": 322,
      "max": [
        0.8750001192092896,
        1.0
      ],
      "min": [
        0.125,
        0.0
      ],
      "type": "VEC2"
    },
    {
      "bufferView": 0,
      "byteOffset": 89556,
      "componentType": 5125,
      "count": 795,
      "type": "SCALAR"
    },
    {
      "bufferView": 2,
      "byteOffset": 176880,
      "componentType": 5126,
      "count": 846,
      "max": [
        1.5946986675262451,
        2.1477036476135254,
        2.140944242477417
      ],
      "min": [
        -1.1210615634918213,
        -2.05376935005188,
        0.349478542804718
      ],
      "type": "VEC3"
    },
    {
      "bufferView": 2,
      "byteOffset": 187032,
      "componentType": 5126,
      "count": 846,
      "max": [
        0.999492883682251,
        1.0,
        0.9962525963783264
      ],
      "min": [
        -0.9985140562057495,
        -1.0,
        -0.996281623840332
      ],
      "type": "VEC3"
    },
    {
      "bufferView": 1,
      "byteOffset": 58960,
      "componentType": 5126,
      "count": 846,
      "max": [
        1.0,
        1.0
      ],
      "min": [
        0.0,
        0.0
      ],
      "type": "VEC2"
    },
    {
      "bufferView": 0,
      "byteOffset": 92736,
      "componentType": 5125,
      "count": 2568,
      "type": "SCALAR"
    },
    {
      "bufferView": 2,
      "byteOffset": 197184,
      "componentType": 5126,
      "count": 383,
      "max": [
        0.9784317016601563,
        3.4804601669311523,
        1.8825421333312988
      ],
      "min": [
        -1.1157879829406738,
        -1.758193850517273,
        0.15797068178653717
      ],
      "type": "VEC3"
    },
    {
      "bufferView": 2,
      "byteOffset": 201780,
      "componentType": 5126,
      "count": 383,
      "max": [
        0.9852836728096008,
        0.9978198409080505,
        0.9644224047660828
      ],
      "min": [
        -0.9354700446128845,
        -0.9188278913497925,
        -0.949679434299469
      ],
      "type": "VEC3"
    },
    {
      "bufferView": 1,
      "byteOffset": 65728,
      "componentType": 5126,
      "count": 383,
      "max": [
        0.625,
        1.0
      ],
      "min": [
        0.0,
        0.0
      ],
      "type": "VEC2"
    },
    {
      "bufferView": 0,
      "byteOffset": 103008,
      "componentType": 5125,
      "count": 810,
      "type": "SCALAR"
    },
    {
      "bufferView": 2,
      "byteOffset": 206376,
      "componentType": 5126,
      "count": 1242,
      "max": [
        0.42658859491348267,
        2.9902915954589844,
        1.825049877166748
      ],
      "min": [
        -0.6292250752449036,
        0.4299137592315674,
        0.4401755928993225
      ],
      "type": "VEC3"
    },
    {
      "bufferView": 2,
      "byteOffset": 221280,
      "componentType": 5126,
      "count": 1242,
      "max": [
        0.9999188184738159,
        0.9744346141815186,
        0.9930128455162048
      ],
      "min": [
        -0.9949958920478821,
        -0.9967944622039795,
        -0.9930129051208496
      ],
      "type": "VEC3"
    },
    {
      "bufferView": 1,
      "byteOffset": 68792,
      "componentType": 5126,
      "count": 1242,
      "max": [
        1.0,
        0.75
      ],
      "min": [
        -1.564621925354004e-07,
        0.0
      ],
      "type": "VEC2"
    },
    {
      "bufferView": 0,
      "byteOffset": 106248,
      "componentType": 5125,
      "count": 1734,
      "type": "SCALAR"
    },
    {
      "bufferView": 2,
      "byteOffset": 236184,
      "componentType": 5126,
      "count": 2061,
      "max": [
        0.6491695046424866,
        0.947986364364624,
        1.8633151054382324
      ],
      "min": [
        -0.3658447861671448,
        -0.06731116771697998,
        1.1793057918548584
      ],
      "type": "VEC3"
    },
    {
      "bufferView": 2,
      "byteOffset": 260916,
      "componentType": 5126,
      "count": 2061,
      "max": [
        0.9881879091262817,
        0.9291393160820007,
        0.9975831508636475
      ],
      "min": [
        -0.996970534324646,
        -0.9842054843902588,
        -0.9971960186958313
      ],
      "type": "VEC3"
    },
    {
      "bufferView": 1,
      "byteOffset": 78728,
      "componentType": 5126,
      "count": 2061,
      "max": [
        0.8674731254577637,
        0.9938961267471313
      ],
      "min": [
        0.0,
        0.0
      ],
      "type": "VEC2"
    },
    {
      "bufferView": 0,
      "byteOffset": 113184,
      "componentType": 5125,
      "count": 6084,
      "type": "SCALAR"
    },
    {
      "bufferView": 2,
      "byteOffset": 285648,
      "componentType": 5126,
      "count": 240,
      "max": [
        0.42677077651023865,
        0.6843855381011963,
        1.8619585037231445
      ],
      "min": [
        -0.3635264039039612,
        -0.06731116771697998,
        1.3791813850402832
      ],
      "type": "VEC3"
    },
    {
      "bufferView": 2,
      "byteOffset": 288528,
      "componentType": 5126,
      "count": 240,
      "max": [
        0.41354548931121826,
        0.17674538493156433,
        0.984994649887085
      ],
      "min": [
        -0.9839817881584167,
        -0.983421266078949,
        -0.39690324664115906
      ],
      "type": "VEC3"
    },
    {
      "bufferView": 1,
      "byteOffset": 95216,
      "componentType": 5126,
      "count": 240,
      "max": [
        0.6333765983581543,
        0.9915729761123657
      ],
      "min": [
        0.6143889427185059,
        0.0
      ],
      "type": "VEC2"
    },
    {
      "bufferView": 0,
      "byteOffset": 137520,
      "componentType": 5125,
      "count": 468,
      "type": "SCALAR"
    },
    {
      "bufferView": 2,
      "byteOffset": 291408,
      "componentType": 5126,
      "count": 2530,
      "max": [
        0.32116657495498657,
        0.5496382713317871,
        1.6726303100585938
      ],
      "min": [
        -0.14888328313827515,
        0.31662964820861816,
        1.4839608669281006
      ],
      "type": "VEC3"
    },
    {
      "bufferView": 2,
      "byteOffset": 321768,
      "componentType": 5126,
      "count": 2530,
      "max": [
        0.9983161687850952,
        0.9119756817817688,
        0.9740491509437561
      ],
      "min": [
        -0.9981687664985657,
        -0.912087082862854,
        -0.9740217328071594
      ],
      "type": "VEC3"
    },
    {
      "bufferView": 1,
      "byteOffset": 97136,
      "componentType": 5126,
      "count": 2530,
      "max": [
        1.0,
        0.0
      ],
      "min": [
        0.0,
        0.0
      ],
      "type": "VEC2"
    },
    {
      "bufferView": 0,
      "byteOffset": 139392,
      "componentType": 5125,
      "count": 3036,
      "type": "SCALAR"
    },
    {
      "bufferView": 2,
      "byteOffset": 352128,
      "componentType": 5126,
      "count": 104,
      "max": [
        -0.02111983299255371,
        0.23325276374816895,
        1.6548149585723877
      ],
      "min": [
        -0.24385613203048706,
        0.03149688243865967,
        1.4418336153030396
      ],
      "type": "VEC3"
    },
    {
      "bufferView": 2,
      "byteOffset": 353376,
      "componentType": 5126,
      "count": 104,
      "max": [
        0.8970044851303101,
        0.984006404876709,
        0.06892091780900955
      ],
      "min": [
        -0.9828299880027771,
        -0.2227143943309784,
        -0.9777734875679016
      ],
      "type": "VEC3"
    },
    {
      "bufferView": 1,
      "byteOffset": 117376,
      "componentType": 5126,
      "count": 104,
      "max": [
        0.0,
        0.0
      ],
      "min": [
        0.0,
        0.0
      ],
      "type": "VEC2"
    },
    {
      "bufferView": 0,
      "byteOffset": 151536,
      "componentType": 5125,
      "count": 156,
      "type": "SCALAR"
    },
    {
      "bufferView": 2,
      "byteOffset": 354624,
      "componentType": 5126,
      "count": 52,
      "max": [
        -0.02111983299255371,
        0.23325276374816895,
        1.6548149585723877
      ],
      "min": [
        -0.24385613203048706,
        0.03149688243865967,
        1.4418336153030396
      ],
      "type": "VEC3"
    },
    {
      "bufferView": 2,
      "byteOffset": 355248,
      "componentType": 5126,
      "count": 52,
      "max": [
        0.4856645166873932,
        0.6243571043014526,
        0.6118070483207703
      ],
      "min": [
        -0.4856647551059723,
        -0.624357283115387,
        -0.6118073463439941
      ],
      "type": "VEC3"
    },
    {
      "bufferView": 1,
      "byteOffset": 118208,
      "componentType": 5126,
      "count": 52,
      "max": [
        0.0,
        0.0
      ],
      "min": [
        0.0,
        0.0
      ],
      "type": "VEC2"
    },
    {
      "bufferView": 0,
      "byteOffset": 152160,
      "componentType": 5125,
      "count": 144,
      "type": "SCALAR"
    }
  ],
  "asset": {
    "extras": {
      "author": "P.Gorec (https://sketchfab.com/PavelGorec)",
      "license": "CC-BY-4.0 (http://creativecommons.org/licenses/by/4.0/)",
      "source": "https://sketchfab.com/3d-models/xyz-14f-daily-draft-f9e8b9296d0441859963bd27ebef61f2",
      "title": "XYZ_14F_daily_draft"
    },
    "generator": "Sketchfab-10.70.0",
    "version": "2.0"
  },
  "bufferViews": [
    {
      "buffer": 0,
      "byteLength": 152736,
      "name": "floatBufferViews",
      "target": 34963
    },
    {
      "buffer": 0,
      "byteLength": 118624,
      "byteOffset": 152736,
      "byteStride": 8,
      "name": "floatBufferViews",
      "target": 34962
    },
    {
      "buffer": 0,
      "byteLength": 355872,
      "byteOffset": 271360,
      "byteStride": 12,
      "name": "floatBufferViews",
      "target": 34962
    }
  ],
  "buffers": [
    {
      "byteLength": 627232,
      "uri": "scene.bin"
    }
  ],
  "materials": [
    {
      "doubleSided": true,
      "name": "sharnir",
      "pbrMetallicRoughness": {
        "baseColorFactor": [
          0.157434,
          0.157434,
          0.157434,
          1.0
        ],
        "roughnessFactor": 0.20843593625546455
      }
    },
    {
      "doubleSided": true,
      "name": "metall",
      "pbrMetallicRoughness": {
        "baseColorFactor": [
          0.397527,
          0.397527,
          0.397527,
          1.0
        ],
        "roughnessFactor": 0.8833351573852823
      }
    },
    {
      "doubleSided": true,
      "name": "metall_svet",
      "pbrMetallicRoughness": {
        "baseColorFactor": [
          0.505078,
          0.517334,
          0.517334,
          1.0
        ],
        "roughnessFactor": 0.8711748110586189
      }
    },
    {
      "doubleSided": true,
      "name": "metall.001",
      "pbrMetallicRoughness": {
        "baseColorFactor": [
          0.134449,
          0.142381,
          0.142381,
          1.0
        ],
        "roughnessFactor": 0.9015756768752774
      }
    },
    {
      "doubleSided": true,
      "name": "klava_temn",
      "pbrMetallicRoughness": {
        "baseColorFactor": [
          0.214035,
          0.214035,
          0.214035,
          1.0
        ],
        "metallicFactor": 0.0,
        "roughnessFactor": 0.9475723462903403
      }
    },
    {
      "doubleSided": true,
      "name": "cher",
      "pbrMetallicRoughness": {
        "baseColorFactor": [
          0.0522181,
          0.0522181,
          0.0522181,
          1.0
        ],
        "metallicFactor": 0.0,
        "roughnessFactor": 0.7678118672819803
      }
    },
    {
      "doubleSided": true,
      "name": "klava",
      "pbrMetallicRoughness": {
        "baseColorFactor": [
          0.496923,
          0.496923,
          0.496923,
          1.0
        ],
        "metallicFactor": 0.0,
        "roughnessFactor": 0.6097273650353562
      }
    },
    {
      "doubleSided": true,
      "name": "klava_svet",
      "pbrMetallicRoughness": {
        "baseColorFactor": [
          0.673848,
          0.673848,
          0.673848,
          1.0
        ],
        "metallicFactor": 0.0,
        "roughnessFactor": 0.834941623580504
      }
    },
    {
      "doubleSided": true,
      "name": "kras",
      "pbrMetallicRoughness": {
        "baseColorFactor": [
          0.447979,
          0.0818254,
          0.0771957,
          1.0
        ],
        "metallicFactor": 0.0,
        "roughnessFactor": 0.9609709594034163
      }
    },
    {
      "doubleSided": true,
      "name": "serd_temn",
      "pbrMetallicRoughness": {
        "baseColorFactor": [
          0.401969,
          0.0394198,
          0.0504268,
          1.0
        ],
        "metallicFactor": 0.0,
        "roughnessFactor": 0.9712693309292908
      }
    },
    {
      "doubleSided": true,
      "name": "serd",
      "pbrMetallicRoughness": {
        "baseColorFactor": [
          0.7999999999999999,
          0.05667729999999999,
          0.07841120000000004,
          1.0
        ],
        "metallicFactor": 0.0,
        "roughnessFactor": 0.20786744006469304
      }
    }
  ],
  "meshes": [
    {
      "name": "Cylinder.013_sharnir_0",
      "primitives": [
        {
          "attributes": {
            "NORMAL": 1,
            "POSITION": 0,
            "TEXCOORD_0": 2
          },
          "indices": 3,
          "material": 0,
          "mode": 4
        }
      ]
    },
    {
      "name": "Cylinder.013_metall_0",
      "primitives": [
        {
          "attributes": {
            "NORMAL": 5,
            "POSITION": 4,
            "TEXCOORD_0": 6
          },
          "indices": 7,
          "material": 1,
          "mode": 4
        }
      ]
    },
    {
      "name": "Cylinder.013_metall_svet_0",
      "primitives": [
        {
          "attributes": {
            "NORMAL": 9,
            "POSITION": 8,
            "TEXCOORD_0": 10
          },
          "indices": 11,
          "material": 2,
          "mode": 4
        }
      ]
    },
    {
      "name": "Cylinder.013_metall.001_0",
      "primitives": [
        {
          "attributes": {
            "NORMAL": 13,
            "POSITION": 12,
            "TEXCOORD_0": 14
          },
          "indices": 15,
          "material": 3,
          "mode": 4
        }
      ]
    },
    {
      "name": "Cylinder.013_klava_temn_0",
      "primitives": [
        {
          "attributes": {
            "NORMAL": 17,
            "POSITION": 16,
            "TEXCOORD_0": 18
          },
          "indices": 19,
          "material": 4,
          "mode": 4
        }
      ]
    },
    {
      "name": "Cylinder.013_cher_0",
      "primitives": [
        {
          "attributes": {
            "NORMAL": 21,
            "POSITION": 20,
            "TEXCOORD_0": 22
          },
          "indices": 23,
          "material": 5,
          "mode": 4
        }
      ]
    },
    {
      "name": "Cylinder.013_klava_0",
      "primitives": [
        {
          "attributes": {
            "NORMAL": 25,
            "POSITION": 24,
            "TEXCOORD_0": 26
          },
          "indices": 27,
          "material": 6,
          "mode": 4
        }
      ]
    },
    {
      "name": "Cylinder.013_klava_svet_0",
      "primitives": [
        {
          "attributes": {
            "NORMAL": 29,
            "POSITION": 28,
            "TEXCOORD_0": 30
          },
          "indices": 31,
          "material": 7,
          "mode": 4
        }
      ]
    },
    {
      "name": "Cylinder.013_kras_0",
      "primitives": [
        {
          "attributes": {
            "NORMAL": 33,
            "POSITION": 32,
            "TEXCOORD_0": 34
          },
          "indices": 35,
          "material": 8,
          "mode": 4
        }
      ]
    },
    {
      "name": "Cylinder.013_serd_temn_0",
      "primitives": [
        {
          "attributes": {
            "NORMAL": 37,
            "POSITION": 36,
            "TEXCOORD_0": 38
          },
          "indices": 39,
          "material": 9,
          "mode": 4
        }
      ]
    },
    {
      "name": "Cylinder.013_serd_0",
      "primitives": [
        {
          "attributes": {
            "NORMAL": 41,
            "POSITION": 40,
            "TEXCOORD_0": 42
          },
          "indices": 43,
          "material": 10,
          "mode": 4
        }
      ]
    }
  ],
  "nodes": [
    {
      "children": [
        1
      ],
      "matrix": [
        1.0,
        0.0,
        0.0,
        0.0,
        0.0,
        2.220446049250313e-16,
        -1.0,
        0.0,
        0.0,
        1.0,
        2.220446049250313e-16,
        0.0,
        0.0,
        0.0,
        0.0,
        1.0
      ],
      "name": "Sketchfab_model"
    },
    {
      "children": [
        2
      ],
      "matrix": [
        1.0,
        0.0,
        0.0,
        0.0,
        0.0,
        0.0,
        1.0,
        0.0,
        0.0,
        -1.0,
        0.0,
        0.0,
        0.0,
        0.0,
        0.0,
        1.0
      ],
      "name": "aa7fa0e14e3a448680ba321b3dd6ea53.fbx"
    },
    {
      "children": [
        3
      ],
      "name": "RootNode"
    },
    {
      "children": [
        4,
        5,
        6,
        7,
        8,
        9,
        10,
        11,
        12,
        13,
        14
      ],
      "matrix": [
        100.0,
        0.0,
        0.0,
        0.0,
        0.0,
        -1.629206793918314e-05,
        -99.99999999999868,
        0.0,
        0.0,
        99.99999999999868,
        -1.629206793918314e-05,
        0.0,
        0.0,
        0.0,
        0.0,
        1.0
      ],
      "name": "Cylinder.013"
    },
    {
      "mesh": 0,
      "name": "Cylinder.013_sharnir_0"
    },
    {
      "mesh": 1,
      "name": "Cylinder.013_metall_0"
    },
    {
      "mesh": 2,
      "name": "Cylinder.013_metall_svet_0"
    },
    {
      "mesh": 3,
      "name": "Cylinder.013_metall.001_0"
    },
    {
      "mesh": 4,
      "name": "Cylinder.013_klava_temn_0"
    },
    {
      "mesh": 5,
      "name": "Cylinder.013_cher_0"
    },
    {
      "mesh": 6,
      "name": "Cylinder.013_klava_0"
    },
    {
      "mesh": 7,
      "name": "Cylinder.013_klava_svet_0"
    },
    {
      "mesh": 8,
      "name": "Cylinder.013_kras_0"
    },
    {
      "mesh": 9,
      "name": "Cylinder.013_serd_temn_0"
    },
    {
      "mesh": 10,
      "name": "Cylinder.013_serd_0"
    }
  ],
  "scene": 0,
  "scenes": [
    {
      "name": "Sketchfab_Scene",
      "nodes": [
        0
      ]
    }
  ]
}
